<svg width="524" height="69" viewBox="0 0 524 69" fill="none" xmlns="http://www.w3.org/2000/svg">
<path d="M513.102 39.4344C510.946 38.6866 510.854 35.684 512.907 34.6876C518.902 31.7802 522.906 26.9072 522.906 19.2685C522.906 6.79769 511.816 0.112647 488.349 0.112647H435.344C431.312 0.112647 428.045 3.36777 428.045 7.38423V38.8362L413.069 3.47071C412.207 1.43528 410.205 0.112647 407.988 0.112647H362.89C360.219 0.112647 357.81 1.70913 356.777 4.16213L355.81 6.45586V5.48088C355.81 2.45299 353.347 0 350.308 0H248.013C246.752 0 245.567 0.604023 244.83 1.62173L230.021 22.0634C228.452 24.2289 225.017 23.1238 225.017 20.4513V5.48088C225.017 2.45299 222.553 0 219.515 0H194.501C191.518 0 189.029 1.98104 188.206 4.68458C187.374 1.98104 184.876 0 181.89 0H109.668C106.334 0 103.603 2.46271 103.141 5.65762C102.683 2.46853 99.9574 0.00776879 96.6276 0.00776879H75.6431C72.5862 0.00776879 70.1084 2.4763 70.1084 5.52167V28.8475C70.1084 31.5277 66.6714 32.6464 65.0826 30.4847L43.8699 1.60814C43.131 0.602081 41.9535 0.00776879 40.7019 0.00776879H5.53467C2.47783 0.00776879 0 2.47436 0 5.51972V62.4882C0 65.5336 2.47783 68.0021 5.53467 68.0021H27.6402C30.697 68.0021 33.1749 65.5336 33.1749 62.4882V37.7388C33.1749 35.0508 36.6255 33.9321 38.2144 36.1035L60.3667 66.3921C61.1056 67.402 62.285 68.0002 63.5405 68.0002H96.6179C99.9535 68.0002 102.685 65.5336 103.141 62.3387C103.601 65.5317 106.332 67.9944 109.664 67.9944H181.907C184.888 67.9944 187.379 66.0172 188.208 63.3195C189.033 66.0192 191.522 67.9944 194.501 67.9944H219.515C222.554 67.9944 225.017 65.5414 225.017 62.5135V44.2976C225.017 41.5436 228.61 40.4696 230.13 42.7691L245.652 66.2347C246.38 67.3321 247.612 67.9944 248.931 67.9944H282.865C286.087 67.9944 287.939 64.3392 286.023 61.756L264.483 32.7318C263.371 31.2344 263.475 29.1621 264.73 27.7812L271.881 19.9133H285.38C288.417 19.9133 290.881 22.3663 290.881 25.3942V62.5135C290.881 65.5394 293.343 67.9944 296.383 67.9944H322.504C325.541 67.9944 328.006 65.5414 328.006 62.5135V25.3962C328.006 22.3683 330.468 19.9153 333.507 19.9153H350.14L333.043 60.4897C331.517 64.11 334.186 68.109 338.128 68.109H366.181C367.867 68.109 369.365 67.0369 369.903 65.4443L371.435 60.9092C371.973 59.3166 373.47 58.2445 375.157 58.2445H394.168C395.855 58.2445 397.352 59.3166 397.89 60.9092L399.422 65.4443C399.96 67.0369 401.457 68.109 403.144 68.109H432.133C432.301 68.109 432.451 68.0623 432.615 68.0488C432.817 68.0721 433.014 68.109 433.223 68.109H459.999C462.857 68.109 465.173 65.8016 465.173 62.9544V48.9434C465.173 46.9837 466.768 45.3969 468.733 45.3969H471.884C482.163 45.3969 486.875 47.578 486.875 55.5449V62.9563C486.875 65.8036 489.191 68.1109 492.049 68.1109H518.826C521.684 68.1109 524 65.8036 524 62.9563V55.2613C524 46.3156 519.978 41.8174 513.102 39.4344ZM181.868 50.6894H144.096C141.928 50.6894 140.17 48.9375 140.17 46.7778V46.0184C140.17 43.8587 141.928 42.1068 144.096 42.1068H175.534C177.979 42.1068 179.96 40.1336 179.96 37.698V29.0863C179.96 26.6411 177.969 24.6581 175.515 24.6581H144.096C141.928 24.6581 140.17 22.9063 140.17 20.7465C140.17 18.5868 141.928 16.835 144.096 16.835H181.903C184.562 16.835 186.839 15.2637 187.892 13.0127V54.5408C186.834 52.2723 184.543 50.6913 181.866 50.6913L181.868 50.6894ZM387.437 39.9432H381.83C379.962 39.9432 378.636 38.1273 379.214 36.3579L382.007 27.787C382.83 25.266 386.409 25.2622 387.236 27.7812L390.049 36.3521C390.63 38.1234 389.306 39.9432 387.435 39.9432H387.437ZM475.022 29.8438H468.606C466.708 29.8438 465.17 28.3114 465.17 26.4197V19.0899C465.17 17.1982 466.708 15.6658 468.606 15.6658H475.022C481.733 15.6658 486.207 17.2312 486.207 22.446C486.207 27.8997 481.637 29.8438 475.022 29.8438Z" fill="black"/>
</svg>
